<mxfile host="65bd71144e">
    <diagram id="ASTWp4ZXTidoFe2xOwB_" name="1b">
        <mxGraphModel dx="761" dy="515" grid="1" gridSize="10" guides="1" tooltips="1" connect="1" arrows="1" fold="1" page="1" pageScale="1" pageWidth="827" pageHeight="1169" math="0" shadow="0">
            <root>
                <mxCell id="0"/>
                <mxCell id="1" parent="0"/>
                <mxCell id="2" value="預約客戶" style="shape=umlActor;verticalLabelPosition=bottom;verticalAlign=top;html=1;outlineConnect=0;" vertex="1" parent="1">
                    <mxGeometry x="40" y="120.52000000000001" width="30" height="60" as="geometry"/>
                </mxCell>
                <mxCell id="3" value="現場客戶" style="shape=umlActor;verticalLabelPosition=bottom;verticalAlign=top;html=1;outlineConnect=0;" vertex="1" parent="1">
                    <mxGeometry x="40" y="310.52" width="30" height="60" as="geometry"/>
                </mxCell>
                <mxCell id="4" value="代銷管理者" style="shape=umlActor;verticalLabelPosition=bottom;verticalAlign=top;html=1;outlineConnect=0;" vertex="1" parent="1">
                    <mxGeometry x="40" y="610.52" width="30" height="60" as="geometry"/>
                </mxCell>
                <mxCell id="5" value="代銷人員" style="shape=umlActor;verticalLabelPosition=bottom;verticalAlign=top;html=1;outlineConnect=0;" vertex="1" parent="1">
                    <mxGeometry x="40" y="860.52" width="30" height="60" as="geometry"/>
                </mxCell>
                <mxCell id="6" value="身分填寫" style="ellipse;whiteSpace=wrap;html=1;" vertex="1" parent="1">
                    <mxGeometry x="170" y="370.52" width="120" height="80" as="geometry"/>
                </mxCell>
                <mxCell id="7" value="&lt;span style=&quot;font-family: Söhne, ui-sans-serif, system-ui, -apple-system, &amp;quot;Segoe UI&amp;quot;, Roboto, Ubuntu, Cantarell, &amp;quot;Noto Sans&amp;quot;, sans-serif, &amp;quot;Helvetica Neue&amp;quot;, Arial, &amp;quot;Apple Color Emoji&amp;quot;, &amp;quot;Segoe UI Emoji&amp;quot;, &amp;quot;Segoe UI Symbol&amp;quot;, &amp;quot;Noto Color Emoji&amp;quot;; font-size: 14px; text-align: left; white-space-collapse: preserve; background-color: rgb(23, 22, 22);&quot;&gt;&lt;font style=&quot;&quot; color=&quot;#fafafa&quot;&gt;審核申請&lt;/font&gt;&lt;/span&gt;" style="ellipse;whiteSpace=wrap;html=1;" vertex="1" parent="1">
                    <mxGeometry x="170" y="485.52" width="120" height="80" as="geometry"/>
                </mxCell>
                <mxCell id="8" value="&lt;span style=&quot;font-family: Söhne, ui-sans-serif, system-ui, -apple-system, &amp;quot;Segoe UI&amp;quot;, Roboto, Ubuntu, Cantarell, &amp;quot;Noto Sans&amp;quot;, sans-serif, &amp;quot;Helvetica Neue&amp;quot;, Arial, &amp;quot;Apple Color Emoji&amp;quot;, &amp;quot;Segoe UI Emoji&amp;quot;, &amp;quot;Segoe UI Symbol&amp;quot;, &amp;quot;Noto Color Emoji&amp;quot;; font-size: 14px; text-align: left; white-space-collapse: preserve; background-color: rgb(10, 10, 10);&quot;&gt;&lt;font style=&quot;&quot; color=&quot;#ffffff&quot;&gt;安排代銷人員&lt;/font&gt;&lt;/span&gt;" style="ellipse;whiteSpace=wrap;html=1;" vertex="1" parent="1">
                    <mxGeometry x="470" y="760.52" width="120" height="80" as="geometry"/>
                </mxCell>
                <mxCell id="9" value="&lt;span style=&quot;font-family: Söhne, ui-sans-serif, system-ui, -apple-system, &amp;quot;Segoe UI&amp;quot;, Roboto, Ubuntu, Cantarell, &amp;quot;Noto Sans&amp;quot;, sans-serif, &amp;quot;Helvetica Neue&amp;quot;, Arial, &amp;quot;Apple Color Emoji&amp;quot;, &amp;quot;Segoe UI Emoji&amp;quot;, &amp;quot;Segoe UI Symbol&amp;quot;, &amp;quot;Noto Color Emoji&amp;quot;; font-size: 14px; text-align: left; white-space-collapse: preserve; background-color: rgb(18, 18, 18);&quot;&gt;&lt;font style=&quot;&quot; color=&quot;#ffffff&quot;&gt;管理預約流程和即時參觀流程&lt;/font&gt;&lt;/span&gt;" style="ellipse;whiteSpace=wrap;html=1;" vertex="1" parent="1">
                    <mxGeometry x="310" y="650.52" width="120" height="80" as="geometry"/>
                </mxCell>
                <mxCell id="10" value="&lt;span style=&quot;font-family: Söhne, ui-sans-serif, system-ui, -apple-system, &amp;quot;Segoe UI&amp;quot;, Roboto, Ubuntu, Cantarell, &amp;quot;Noto Sans&amp;quot;, sans-serif, &amp;quot;Helvetica Neue&amp;quot;, Arial, &amp;quot;Apple Color Emoji&amp;quot;, &amp;quot;Segoe UI Emoji&amp;quot;, &amp;quot;Segoe UI Symbol&amp;quot;, &amp;quot;Noto Color Emoji&amp;quot;; font-size: 14px; text-align: left; white-space-collapse: preserve; background-color: rgb(10, 10, 10);&quot;&gt;&lt;font color=&quot;#faf4f4&quot;&gt;接待買家&lt;/font&gt;&lt;/span&gt;" style="ellipse;whiteSpace=wrap;html=1;" vertex="1" parent="1">
                    <mxGeometry x="180" y="850.52" width="120" height="80" as="geometry"/>
                </mxCell>
                <mxCell id="11" value="" style="endArrow=none;html=1;rounded=0;" edge="1" parent="1" source="7" target="4">
                    <mxGeometry width="50" height="50" relative="1" as="geometry">
                        <mxPoint x="400" y="850.52" as="sourcePoint"/>
                        <mxPoint x="450" y="800.52" as="targetPoint"/>
                    </mxGeometry>
                </mxCell>
                <mxCell id="12" value="" style="endArrow=none;html=1;rounded=0;" edge="1" parent="1" source="4" target="9">
                    <mxGeometry width="50" height="50" relative="1" as="geometry">
                        <mxPoint x="400" y="850.52" as="sourcePoint"/>
                        <mxPoint x="450" y="800.52" as="targetPoint"/>
                    </mxGeometry>
                </mxCell>
                <mxCell id="13" value="" style="endArrow=none;html=1;rounded=0;" edge="1" parent="1" source="4" target="8">
                    <mxGeometry width="50" height="50" relative="1" as="geometry">
                        <mxPoint x="400" y="850.52" as="sourcePoint"/>
                        <mxPoint x="450" y="800.52" as="targetPoint"/>
                    </mxGeometry>
                </mxCell>
                <mxCell id="14" value="" style="endArrow=none;html=1;rounded=0;" edge="1" parent="1" source="5" target="10">
                    <mxGeometry width="50" height="50" relative="1" as="geometry">
                        <mxPoint x="400" y="850.52" as="sourcePoint"/>
                        <mxPoint x="450" y="800.52" as="targetPoint"/>
                    </mxGeometry>
                </mxCell>
                <mxCell id="15" value="" style="endArrow=none;html=1;rounded=0;" edge="1" parent="1" source="3" target="6">
                    <mxGeometry width="50" height="50" relative="1" as="geometry">
                        <mxPoint x="400" y="350.52" as="sourcePoint"/>
                        <mxPoint x="450" y="300.52" as="targetPoint"/>
                    </mxGeometry>
                </mxCell>
                <mxCell id="16" value="" style="endArrow=none;html=1;rounded=0;" edge="1" parent="1" source="2">
                    <mxGeometry width="50" height="50" relative="1" as="geometry">
                        <mxPoint x="400" y="350.52" as="sourcePoint"/>
                        <mxPoint x="365.7087796730093" y="99.99824720764073" as="targetPoint"/>
                    </mxGeometry>
                </mxCell>
                <mxCell id="17" value="身分填寫" style="ellipse;whiteSpace=wrap;html=1;" vertex="1" parent="1">
                    <mxGeometry x="364" y="180.52" width="120" height="80" as="geometry"/>
                </mxCell>
                <mxCell id="18" value="" style="endArrow=none;html=1;rounded=0;" edge="1" parent="1" source="2" target="17">
                    <mxGeometry width="50" height="50" relative="1" as="geometry">
                        <mxPoint x="400" y="350.52" as="sourcePoint"/>
                        <mxPoint x="450" y="300.52" as="targetPoint"/>
                    </mxGeometry>
                </mxCell>
                <mxCell id="19" value="點選現場制line選單" style="ellipse;whiteSpace=wrap;html=1;" vertex="1" parent="1">
                    <mxGeometry x="170" y="250.52" width="120" height="80" as="geometry"/>
                </mxCell>
                <mxCell id="20" value="" style="endArrow=none;html=1;rounded=0;exitX=0.5;exitY=0.5;exitDx=0;exitDy=0;exitPerimeter=0;" edge="1" parent="1" source="3" target="19">
                    <mxGeometry width="50" height="50" relative="1" as="geometry">
                        <mxPoint x="400" y="350.52" as="sourcePoint"/>
                        <mxPoint x="450" y="300.52" as="targetPoint"/>
                    </mxGeometry>
                </mxCell>
                <mxCell id="21" value="預約客戶&lt;span style=&quot;color: rgba(0, 0, 0, 0); font-family: monospace; font-size: 0px; text-align: start; text-wrap: nowrap;&quot;&gt;%3CmxGraphModel%3E%3Croot%3E%3CmxCell%20id%3D%220%22%2F%3E%3CmxCell%20id%3D%221%22%20parent%3D%220%22%2F%3E%3CmxCell%20id%3D%222%22%20value%3D%22%E9%BB%9E%E9%81%B8%E9%A0%90%E7%B4%84%E5%88%B6line%E9%81%B8%E5%96%AE%22%20style%3D%22ellipse%3BwhiteSpace%3Dwrap%3Bhtml%3D1%3B%22%20vertex%3D%221%22%20parent%3D%221%22%3E%3CmxGeometry%20x%3D%22170%22%20y%3D%22100%22%20width%3D%22120%22%20height%3D%2280%22%20as%3D%22geometry%22%2F%3E%3C%2FmxCell%3E%3C%2Froot%3E%3C%2FmxGraphModel%3E&lt;/span&gt;" style="ellipse;whiteSpace=wrap;html=1;" vertex="1" parent="1">
                    <mxGeometry x="310" y="420.52" width="120" height="80" as="geometry"/>
                </mxCell>
                <mxCell id="22" value="現場客戶&lt;span style=&quot;color: rgba(0, 0, 0, 0); font-family: monospace; font-size: 0px; text-align: start; text-wrap: nowrap;&quot;&gt;%3CmxGraphModel%3E%3Croot%3E%3CmxCell%20id%3D%220%22%2F%3E%3CmxCell%20id%3D%221%22%20parent%3D%220%22%2F%3E%3CmxCell%20id%3D%222%22%20value%3D%22%E9%BB%9E%E9%81%B8%E9%A0%90%E7%B4%84%E5%88%B6line%E9%81%B8%E5%96%AE%22%20style%3D%22ellipse%3BwhiteSpace%3Dwrap%3Bhtml%3D1%3B%22%20vertex%3D%221%22%20parent%3D%221%22%3E%3CmxGeometry%20x%3D%22170%22%20y%3D%22100%22%20width%3D%22120%22%20height%3D%2280%22%20as%3D%22geometry%22%2F%3E%3C%2FmxCell%3E%3C%2Froot%3E%3C%2FmxGraphModel%3E&lt;/span&gt;" style="ellipse;whiteSpace=wrap;html=1;" vertex="1" parent="1">
                    <mxGeometry x="310" y="525.02" width="120" height="80" as="geometry"/>
                </mxCell>
                <mxCell id="23" value="" style="endArrow=classic;html=1;rounded=0;" edge="1" parent="1" source="7" target="21">
                    <mxGeometry width="50" height="50" relative="1" as="geometry">
                        <mxPoint x="400" y="450.52" as="sourcePoint"/>
                        <mxPoint x="450" y="400.52" as="targetPoint"/>
                    </mxGeometry>
                </mxCell>
                <mxCell id="24" value="" style="endArrow=classic;html=1;rounded=0;" edge="1" parent="1" source="7" target="22">
                    <mxGeometry width="50" height="50" relative="1" as="geometry">
                        <mxPoint x="400" y="450.52" as="sourcePoint"/>
                        <mxPoint x="450" y="400.52" as="targetPoint"/>
                    </mxGeometry>
                </mxCell>
                <mxCell id="25" value="查詢時段" style="ellipse;whiteSpace=wrap;html=1;" vertex="1" parent="1">
                    <mxGeometry x="460" y="420.52" width="120" height="80" as="geometry"/>
                </mxCell>
                <mxCell id="26" value="" style="endArrow=classic;html=1;rounded=0;" edge="1" parent="1" source="21" target="25">
                    <mxGeometry width="50" height="50" relative="1" as="geometry">
                        <mxPoint x="400" y="450.52" as="sourcePoint"/>
                        <mxPoint x="450" y="400.52" as="targetPoint"/>
                    </mxGeometry>
                </mxCell>
                <mxCell id="27" value="推送失敗消息" style="ellipse;whiteSpace=wrap;html=1;" vertex="1" parent="1">
                    <mxGeometry x="650" y="480.52" width="120" height="80" as="geometry"/>
                </mxCell>
                <mxCell id="28" value="" style="endArrow=classic;html=1;rounded=0;" edge="1" parent="1" source="25" target="43">
                    <mxGeometry relative="1" as="geometry">
                        <mxPoint x="370" y="420.52" as="sourcePoint"/>
                        <mxPoint x="470" y="420.52" as="targetPoint"/>
                    </mxGeometry>
                </mxCell>
                <mxCell id="29" value="成功" style="edgeLabel;resizable=0;html=1;;align=center;verticalAlign=middle;" connectable="0" vertex="1" parent="28">
                    <mxGeometry relative="1" as="geometry"/>
                </mxCell>
                <mxCell id="30" value="" style="endArrow=classic;html=1;rounded=0;" edge="1" parent="1" source="25" target="27">
                    <mxGeometry relative="1" as="geometry">
                        <mxPoint x="370" y="420.52" as="sourcePoint"/>
                        <mxPoint x="470" y="420.52" as="targetPoint"/>
                    </mxGeometry>
                </mxCell>
                <mxCell id="31" value="失敗" style="edgeLabel;resizable=0;html=1;;align=center;verticalAlign=middle;" connectable="0" vertex="1" parent="30">
                    <mxGeometry relative="1" as="geometry"/>
                </mxCell>
                <mxCell id="32" value="指派閒置代銷人員" style="ellipse;whiteSpace=wrap;html=1;" vertex="1" parent="1">
                    <mxGeometry x="470" y="525.52" width="120" height="80" as="geometry"/>
                </mxCell>
                <mxCell id="33" value="" style="endArrow=classic;html=1;rounded=0;" edge="1" parent="1" source="22" target="32">
                    <mxGeometry width="50" height="50" relative="1" as="geometry">
                        <mxPoint x="400" y="450.52" as="sourcePoint"/>
                        <mxPoint x="450" y="400.52" as="targetPoint"/>
                    </mxGeometry>
                </mxCell>
                <mxCell id="34" value="" style="endArrow=classic;html=1;rounded=0;" edge="1" parent="1" source="19" target="6">
                    <mxGeometry width="50" height="50" relative="1" as="geometry">
                        <mxPoint x="400" y="450.52" as="sourcePoint"/>
                        <mxPoint x="450" y="400.52" as="targetPoint"/>
                    </mxGeometry>
                </mxCell>
                <mxCell id="35" value="" style="endArrow=classic;html=1;rounded=0;" edge="1" parent="1" source="6" target="7">
                    <mxGeometry width="50" height="50" relative="1" as="geometry">
                        <mxPoint x="400" y="450.52" as="sourcePoint"/>
                        <mxPoint x="450" y="400.52" as="targetPoint"/>
                    </mxGeometry>
                </mxCell>
                <mxCell id="36" value="" style="endArrow=classic;html=1;rounded=0;" edge="1" parent="1" target="17">
                    <mxGeometry width="50" height="50" relative="1" as="geometry">
                        <mxPoint x="424" y="130.52" as="sourcePoint"/>
                        <mxPoint x="450" y="400.52" as="targetPoint"/>
                    </mxGeometry>
                </mxCell>
                <mxCell id="37" value="" style="endArrow=classic;html=1;rounded=0;" edge="1" parent="1" source="17" target="7">
                    <mxGeometry width="50" height="50" relative="1" as="geometry">
                        <mxPoint x="400" y="450.52" as="sourcePoint"/>
                        <mxPoint x="450" y="400.52" as="targetPoint"/>
                    </mxGeometry>
                </mxCell>
                <mxCell id="38" value="瀏覽時段" style="ellipse;whiteSpace=wrap;html=1;" vertex="1" parent="1">
                    <mxGeometry x="620" y="180.52" width="120" height="80" as="geometry"/>
                </mxCell>
                <mxCell id="39" value="" style="endArrow=none;dashed=1;html=1;dashPattern=1 3;strokeWidth=2;rounded=0;" edge="1" parent="1" source="50" target="38">
                    <mxGeometry width="50" height="50" relative="1" as="geometry">
                        <mxPoint x="400" y="450.52" as="sourcePoint"/>
                        <mxPoint x="450" y="400.52" as="targetPoint"/>
                    </mxGeometry>
                </mxCell>
                <mxCell id="40" value="" style="endArrow=none;dashed=1;html=1;dashPattern=1 3;strokeWidth=2;rounded=0;" edge="1" parent="1" source="46" target="25">
                    <mxGeometry width="50" height="50" relative="1" as="geometry">
                        <mxPoint x="400" y="450.52" as="sourcePoint"/>
                        <mxPoint x="450" y="400.52" as="targetPoint"/>
                    </mxGeometry>
                </mxCell>
                <mxCell id="41" value="" style="endArrow=none;dashed=1;html=1;dashPattern=1 3;strokeWidth=2;rounded=0;" edge="1" parent="1" source="48" target="32">
                    <mxGeometry width="50" height="50" relative="1" as="geometry">
                        <mxPoint x="400" y="450.52" as="sourcePoint"/>
                        <mxPoint x="450" y="400.52" as="targetPoint"/>
                    </mxGeometry>
                </mxCell>
                <mxCell id="42" value="" style="endArrow=classic;html=1;rounded=0;" edge="1" parent="1" source="32" target="8">
                    <mxGeometry width="50" height="50" relative="1" as="geometry">
                        <mxPoint x="400" y="550.52" as="sourcePoint"/>
                        <mxPoint x="450" y="500.52" as="targetPoint"/>
                    </mxGeometry>
                </mxCell>
                <mxCell id="43" value="&lt;span style=&quot;font-family: Söhne, ui-sans-serif, system-ui, -apple-system, &amp;quot;Segoe UI&amp;quot;, Roboto, Ubuntu, Cantarell, &amp;quot;Noto Sans&amp;quot;, sans-serif, &amp;quot;Helvetica Neue&amp;quot;, Arial, &amp;quot;Apple Color Emoji&amp;quot;, &amp;quot;Segoe UI Emoji&amp;quot;, &amp;quot;Segoe UI Symbol&amp;quot;, &amp;quot;Noto Color Emoji&amp;quot;; font-size: 14px; text-align: left; white-space-collapse: preserve; background-color: rgb(13, 12, 12);&quot;&gt;&lt;font color=&quot;#fafafa&quot;&gt;安排代銷人員&lt;/font&gt;&lt;/span&gt;" style="ellipse;whiteSpace=wrap;html=1;" vertex="1" parent="1">
                    <mxGeometry x="550" y="310.52" width="120" height="80" as="geometry"/>
                </mxCell>
                <mxCell id="44" value="" style="endArrow=classic;html=1;rounded=0;" edge="1" parent="1" source="43">
                    <mxGeometry width="50" height="50" relative="1" as="geometry">
                        <mxPoint x="400" y="550.52" as="sourcePoint"/>
                        <mxPoint x="700" y="350.52" as="targetPoint"/>
                    </mxGeometry>
                </mxCell>
                <mxCell id="45" value="" style="endArrow=none;dashed=1;html=1;dashPattern=1 3;strokeWidth=2;rounded=0;" edge="1" parent="1" source="9" target="46">
                    <mxGeometry width="50" height="50" relative="1" as="geometry">
                        <mxPoint x="405" y="624.52" as="sourcePoint"/>
                        <mxPoint x="495" y="496.52" as="targetPoint"/>
                    </mxGeometry>
                </mxCell>
                <mxCell id="46" value="&amp;lt;&amp;lt;include&amp;gt;&amp;gt;" style="text;html=1;align=center;verticalAlign=middle;whiteSpace=wrap;rounded=0;" vertex="1" parent="1">
                    <mxGeometry x="437" y="510.52" width="60" height="30" as="geometry"/>
                </mxCell>
                <mxCell id="47" value="" style="endArrow=none;dashed=1;html=1;dashPattern=1 3;strokeWidth=2;rounded=0;" edge="1" parent="1" source="9" target="48">
                    <mxGeometry width="50" height="50" relative="1" as="geometry">
                        <mxPoint x="424" y="632.52" as="sourcePoint"/>
                        <mxPoint x="487" y="593.52" as="targetPoint"/>
                    </mxGeometry>
                </mxCell>
                <mxCell id="48" value="&amp;lt;&amp;lt;include&amp;gt;&amp;gt;" style="text;html=1;align=center;verticalAlign=middle;whiteSpace=wrap;rounded=0;" vertex="1" parent="1">
                    <mxGeometry x="424" y="610.52" width="60" height="30" as="geometry"/>
                </mxCell>
                <mxCell id="49" value="" style="endArrow=none;dashed=1;html=1;dashPattern=1 3;strokeWidth=2;rounded=0;" edge="1" parent="1" source="17" target="50">
                    <mxGeometry width="50" height="50" relative="1" as="geometry">
                        <mxPoint x="484" y="220.52" as="sourcePoint"/>
                        <mxPoint x="560" y="220.52" as="targetPoint"/>
                    </mxGeometry>
                </mxCell>
                <mxCell id="50" value="&amp;lt;&amp;lt;include&amp;gt;&amp;gt;" style="text;html=1;align=center;verticalAlign=middle;whiteSpace=wrap;rounded=0;" vertex="1" parent="1">
                    <mxGeometry x="520" y="205.52" width="60" height="30" as="geometry"/>
                </mxCell>
                <mxCell id="100" value="點選預約制line選單" style="ellipse;whiteSpace=wrap;html=1;" vertex="1" parent="1">
                    <mxGeometry x="364" y="60" width="120" height="80" as="geometry"/>
                </mxCell>
                <mxCell id="101" value="推送成功消息" style="ellipse;whiteSpace=wrap;html=1;" vertex="1" parent="1">
                    <mxGeometry x="700" y="310.52" width="120" height="80" as="geometry"/>
                </mxCell>
            </root>
        </mxGraphModel>
    </diagram>
    <diagram id="YNBZmlXG5lnyesX3e9GX" name="1d">
        <mxGraphModel dx="761" dy="515" grid="1" gridSize="10" guides="1" tooltips="1" connect="1" arrows="1" fold="1" page="1" pageScale="1" pageWidth="827" pageHeight="1169" math="0" shadow="0">
            <root>
                <mxCell id="0"/>
                <mxCell id="1" parent="0"/>
                <mxCell id="dCFRTESXz_O-yJaZaDyY-1" value="客戶資料" style="swimlane;fontStyle=2;align=center;verticalAlign=top;childLayout=stackLayout;horizontal=1;startSize=26;horizontalStack=0;resizeParent=1;resizeLast=0;collapsible=1;marginBottom=0;rounded=0;shadow=0;strokeWidth=1;" vertex="1" parent="1">
                    <mxGeometry x="170" y="350" width="160" height="120" as="geometry">
                        <mxRectangle x="230" y="140" width="160" height="26" as="alternateBounds"/>
                    </mxGeometry>
                </mxCell>
                <mxCell id="dCFRTESXz_O-yJaZaDyY-2" value="姓名: 字串&#10;" style="text;align=left;verticalAlign=top;spacingLeft=4;spacingRight=4;overflow=hidden;rotatable=0;points=[[0,0.5],[1,0.5]];portConstraint=eastwest;" vertex="1" parent="dCFRTESXz_O-yJaZaDyY-1">
                    <mxGeometry y="26" width="160" height="26" as="geometry"/>
                </mxCell>
                <mxCell id="dCFRTESXz_O-yJaZaDyY-3" value="手機號碼:字串" style="text;align=left;verticalAlign=top;spacingLeft=4;spacingRight=4;overflow=hidden;rotatable=0;points=[[0,0.5],[1,0.5]];portConstraint=eastwest;rounded=0;shadow=0;html=0;" vertex="1" parent="dCFRTESXz_O-yJaZaDyY-1">
                    <mxGeometry y="52" width="160" height="26" as="geometry"/>
                </mxCell>
                <mxCell id="dCFRTESXz_O-yJaZaDyY-4" value="" style="line;html=1;strokeWidth=1;align=left;verticalAlign=middle;spacingTop=-1;spacingLeft=3;spacingRight=3;rotatable=0;labelPosition=right;points=[];portConstraint=eastwest;" vertex="1" parent="dCFRTESXz_O-yJaZaDyY-1">
                    <mxGeometry y="78" width="160" height="8" as="geometry"/>
                </mxCell>
                <mxCell id="dCFRTESXz_O-yJaZaDyY-5" value="讀取客戶資料()" style="text;align=left;verticalAlign=top;spacingLeft=4;spacingRight=4;overflow=hidden;rotatable=0;points=[[0,0.5],[1,0.5]];portConstraint=eastwest;" vertex="1" parent="dCFRTESXz_O-yJaZaDyY-1">
                    <mxGeometry y="86" width="160" height="26" as="geometry"/>
                </mxCell>
                <mxCell id="dCFRTESXz_O-yJaZaDyY-6" value="" style="endArrow=block;endSize=10;endFill=0;shadow=0;strokeWidth=1;rounded=0;curved=0;edgeStyle=elbowEdgeStyle;elbow=vertical;" edge="1" parent="1" target="dCFRTESXz_O-yJaZaDyY-1">
                    <mxGeometry width="160" relative="1" as="geometry">
                        <mxPoint x="170" y="550" as="sourcePoint"/>
                        <mxPoint x="170" y="393" as="targetPoint"/>
                    </mxGeometry>
                </mxCell>
                <mxCell id="dCFRTESXz_O-yJaZaDyY-7" value="" style="endArrow=block;endSize=10;endFill=0;shadow=0;strokeWidth=1;rounded=0;curved=0;edgeStyle=elbowEdgeStyle;elbow=vertical;" edge="1" parent="1" target="dCFRTESXz_O-yJaZaDyY-1">
                    <mxGeometry width="160" relative="1" as="geometry">
                        <mxPoint x="380" y="550" as="sourcePoint"/>
                        <mxPoint x="280" y="461" as="targetPoint"/>
                    </mxGeometry>
                </mxCell>
                <mxCell id="dCFRTESXz_O-yJaZaDyY-8" value="房屋代銷系統" style="swimlane;fontStyle=0;align=center;verticalAlign=top;childLayout=stackLayout;horizontal=1;startSize=26;horizontalStack=0;resizeParent=1;resizeLast=0;collapsible=1;marginBottom=0;rounded=0;shadow=0;strokeWidth=1;" vertex="1" parent="1">
                    <mxGeometry x="340" y="90" width="160" height="180" as="geometry">
                        <mxRectangle x="550" y="140" width="160" height="26" as="alternateBounds"/>
                    </mxGeometry>
                </mxCell>
                <mxCell id="dCFRTESXz_O-yJaZaDyY-9" value="" style="line;html=1;strokeWidth=1;align=left;verticalAlign=middle;spacingTop=-1;spacingLeft=3;spacingRight=3;rotatable=0;labelPosition=right;points=[];portConstraint=eastwest;" vertex="1" parent="dCFRTESXz_O-yJaZaDyY-8">
                    <mxGeometry y="26" width="160" height="8" as="geometry"/>
                </mxCell>
                <mxCell id="dCFRTESXz_O-yJaZaDyY-10" value="申請預約看房()" style="text;align=left;verticalAlign=top;spacingLeft=4;spacingRight=4;overflow=hidden;rotatable=0;points=[[0,0.5],[1,0.5]];portConstraint=eastwest;" vertex="1" parent="dCFRTESXz_O-yJaZaDyY-8">
                    <mxGeometry y="34" width="160" height="26" as="geometry"/>
                </mxCell>
                <mxCell id="dCFRTESXz_O-yJaZaDyY-11" value="審核申請()" style="text;align=left;verticalAlign=top;spacingLeft=4;spacingRight=4;overflow=hidden;rotatable=0;points=[[0,0.5],[1,0.5]];portConstraint=eastwest;" vertex="1" parent="dCFRTESXz_O-yJaZaDyY-8">
                    <mxGeometry y="60" width="160" height="30" as="geometry"/>
                </mxCell>
                <mxCell id="dCFRTESXz_O-yJaZaDyY-12" value="安排時程()" style="text;align=left;verticalAlign=top;spacingLeft=4;spacingRight=4;overflow=hidden;rotatable=0;points=[[0,0.5],[1,0.5]];portConstraint=eastwest;" vertex="1" parent="dCFRTESXz_O-yJaZaDyY-8">
                    <mxGeometry y="90" width="160" height="30" as="geometry"/>
                </mxCell>
                <mxCell id="dCFRTESXz_O-yJaZaDyY-13" value="推送訊息()" style="text;align=left;verticalAlign=top;spacingLeft=4;spacingRight=4;overflow=hidden;rotatable=0;points=[[0,0.5],[1,0.5]];portConstraint=eastwest;" vertex="1" parent="dCFRTESXz_O-yJaZaDyY-8">
                    <mxGeometry y="120" width="160" height="30" as="geometry"/>
                </mxCell>
                <mxCell id="dCFRTESXz_O-yJaZaDyY-14" value="申請現場即時參觀()" style="text;align=left;verticalAlign=top;spacingLeft=4;spacingRight=4;overflow=hidden;rotatable=0;points=[[0,0.5],[1,0.5]];portConstraint=eastwest;" vertex="1" parent="dCFRTESXz_O-yJaZaDyY-8">
                    <mxGeometry y="150" width="160" height="30" as="geometry"/>
                </mxCell>
                <mxCell id="dCFRTESXz_O-yJaZaDyY-15" value="" style="endArrow=open;shadow=0;strokeWidth=1;rounded=0;curved=0;endFill=1;edgeStyle=elbowEdgeStyle;elbow=vertical;" edge="1" parent="1" source="dCFRTESXz_O-yJaZaDyY-1" target="dCFRTESXz_O-yJaZaDyY-8">
                    <mxGeometry x="0.5" y="41" relative="1" as="geometry">
                        <mxPoint x="350" y="382" as="sourcePoint"/>
                        <mxPoint x="510" y="382" as="targetPoint"/>
                        <mxPoint x="-40" y="32" as="offset"/>
                    </mxGeometry>
                </mxCell>
                <mxCell id="dCFRTESXz_O-yJaZaDyY-17" value="1" style="resizable=0;align=right;verticalAlign=bottom;labelBackgroundColor=none;fontSize=12;" connectable="0" vertex="1" parent="dCFRTESXz_O-yJaZaDyY-15">
                    <mxGeometry x="1" relative="1" as="geometry">
                        <mxPoint x="-7" y="4" as="offset"/>
                    </mxGeometry>
                </mxCell>
                <mxCell id="dCFRTESXz_O-yJaZaDyY-19" value="預約客戶資料" style="swimlane;fontStyle=2;align=center;verticalAlign=top;childLayout=stackLayout;horizontal=1;startSize=26;horizontalStack=0;resizeParent=1;resizeLast=0;collapsible=1;marginBottom=0;rounded=0;shadow=0;strokeWidth=1;" vertex="1" parent="1">
                    <mxGeometry x="90" y="550" width="160" height="120" as="geometry">
                        <mxRectangle x="230" y="140" width="160" height="26" as="alternateBounds"/>
                    </mxGeometry>
                </mxCell>
                <mxCell id="dCFRTESXz_O-yJaZaDyY-20" value="期望接待日期: 日期&#10;" style="text;align=left;verticalAlign=top;spacingLeft=4;spacingRight=4;overflow=hidden;rotatable=0;points=[[0,0.5],[1,0.5]];portConstraint=eastwest;" vertex="1" parent="dCFRTESXz_O-yJaZaDyY-19">
                    <mxGeometry y="26" width="160" height="26" as="geometry"/>
                </mxCell>
                <mxCell id="dCFRTESXz_O-yJaZaDyY-21" value="期望接待時段: 字串" style="text;align=left;verticalAlign=top;spacingLeft=4;spacingRight=4;overflow=hidden;rotatable=0;points=[[0,0.5],[1,0.5]];portConstraint=eastwest;rounded=0;shadow=0;html=0;" vertex="1" parent="dCFRTESXz_O-yJaZaDyY-19">
                    <mxGeometry y="52" width="160" height="26" as="geometry"/>
                </mxCell>
                <mxCell id="dCFRTESXz_O-yJaZaDyY-22" value="" style="line;html=1;strokeWidth=1;align=left;verticalAlign=middle;spacingTop=-1;spacingLeft=3;spacingRight=3;rotatable=0;labelPosition=right;points=[];portConstraint=eastwest;" vertex="1" parent="dCFRTESXz_O-yJaZaDyY-19">
                    <mxGeometry y="78" width="160" height="8" as="geometry"/>
                </mxCell>
                <mxCell id="dCFRTESXz_O-yJaZaDyY-23" value="審核()" style="text;align=left;verticalAlign=top;spacingLeft=4;spacingRight=4;overflow=hidden;rotatable=0;points=[[0,0.5],[1,0.5]];portConstraint=eastwest;" vertex="1" parent="dCFRTESXz_O-yJaZaDyY-19">
                    <mxGeometry y="86" width="160" height="26" as="geometry"/>
                </mxCell>
                <mxCell id="dCFRTESXz_O-yJaZaDyY-24" value="現場客戶資料" style="swimlane;fontStyle=2;align=center;verticalAlign=top;childLayout=stackLayout;horizontal=1;startSize=26;horizontalStack=0;resizeParent=1;resizeLast=0;collapsible=1;marginBottom=0;rounded=0;shadow=0;strokeWidth=1;" vertex="1" collapsed="1" parent="1">
                    <mxGeometry x="300" y="550" width="160" height="26" as="geometry">
                        <mxRectangle x="300" y="550" width="160" height="112" as="alternateBounds"/>
                    </mxGeometry>
                </mxCell>
                <mxCell id="dCFRTESXz_O-yJaZaDyY-25" value="&#10;" style="text;align=left;verticalAlign=top;spacingLeft=4;spacingRight=4;overflow=hidden;rotatable=0;points=[[0,0.5],[1,0.5]];portConstraint=eastwest;" vertex="1" parent="dCFRTESXz_O-yJaZaDyY-24">
                    <mxGeometry y="26" width="160" height="26" as="geometry"/>
                </mxCell>
                <mxCell id="dCFRTESXz_O-yJaZaDyY-26" value="" style="line;html=1;strokeWidth=1;align=left;verticalAlign=middle;spacingTop=-1;spacingLeft=3;spacingRight=3;rotatable=0;labelPosition=right;points=[];portConstraint=eastwest;" vertex="1" parent="dCFRTESXz_O-yJaZaDyY-24">
                    <mxGeometry y="52" width="160" height="60" as="geometry"/>
                </mxCell>
                <mxCell id="dCFRTESXz_O-yJaZaDyY-27" value="代銷管理者" style="swimlane;fontStyle=2;align=center;verticalAlign=top;childLayout=stackLayout;horizontal=1;startSize=26;horizontalStack=0;resizeParent=1;resizeLast=0;collapsible=1;marginBottom=0;rounded=0;shadow=0;strokeWidth=1;" vertex="1" parent="1">
                    <mxGeometry x="540" y="390" width="160" height="112" as="geometry">
                        <mxRectangle x="230" y="140" width="160" height="26" as="alternateBounds"/>
                    </mxGeometry>
                </mxCell>
                <mxCell id="dCFRTESXz_O-yJaZaDyY-28" value="姓名: 字串&#10;" style="text;align=left;verticalAlign=top;spacingLeft=4;spacingRight=4;overflow=hidden;rotatable=0;points=[[0,0.5],[1,0.5]];portConstraint=eastwest;" vertex="1" parent="dCFRTESXz_O-yJaZaDyY-27">
                    <mxGeometry y="26" width="160" height="26" as="geometry"/>
                </mxCell>
                <mxCell id="dCFRTESXz_O-yJaZaDyY-29" value="" style="line;html=1;strokeWidth=1;align=left;verticalAlign=middle;spacingTop=-1;spacingLeft=3;spacingRight=3;rotatable=0;labelPosition=right;points=[];portConstraint=eastwest;" vertex="1" parent="dCFRTESXz_O-yJaZaDyY-27">
                    <mxGeometry y="52" width="160" height="8" as="geometry"/>
                </mxCell>
                <mxCell id="dCFRTESXz_O-yJaZaDyY-30" value="審核申請()" style="text;align=left;verticalAlign=top;spacingLeft=4;spacingRight=4;overflow=hidden;rotatable=0;points=[[0,0.5],[1,0.5]];portConstraint=eastwest;" vertex="1" parent="dCFRTESXz_O-yJaZaDyY-27">
                    <mxGeometry y="60" width="160" height="26" as="geometry"/>
                </mxCell>
                <mxCell id="dCFRTESXz_O-yJaZaDyY-31" value="安排時程()" style="text;align=left;verticalAlign=top;spacingLeft=4;spacingRight=4;overflow=hidden;rotatable=0;points=[[0,0.5],[1,0.5]];portConstraint=eastwest;" vertex="1" parent="dCFRTESXz_O-yJaZaDyY-27">
                    <mxGeometry y="86" width="160" height="26" as="geometry"/>
                </mxCell>
                <mxCell id="dCFRTESXz_O-yJaZaDyY-32" value="代銷人員 " style="swimlane;fontStyle=2;align=center;verticalAlign=top;childLayout=stackLayout;horizontal=1;startSize=26;horizontalStack=0;resizeParent=1;resizeLast=0;collapsible=1;marginBottom=0;rounded=0;shadow=0;strokeWidth=1;" vertex="1" parent="1">
                    <mxGeometry x="580" y="610" width="160" height="90" as="geometry">
                        <mxRectangle x="230" y="140" width="160" height="26" as="alternateBounds"/>
                    </mxGeometry>
                </mxCell>
                <mxCell id="dCFRTESXz_O-yJaZaDyY-33" value="姓名: 字串&#10;" style="text;align=left;verticalAlign=top;spacingLeft=4;spacingRight=4;overflow=hidden;rotatable=0;points=[[0,0.5],[1,0.5]];portConstraint=eastwest;" vertex="1" parent="dCFRTESXz_O-yJaZaDyY-32">
                    <mxGeometry y="26" width="160" height="26" as="geometry"/>
                </mxCell>
                <mxCell id="dCFRTESXz_O-yJaZaDyY-34" value="" style="line;html=1;strokeWidth=1;align=left;verticalAlign=middle;spacingTop=-1;spacingLeft=3;spacingRight=3;rotatable=0;labelPosition=right;points=[];portConstraint=eastwest;" vertex="1" parent="dCFRTESXz_O-yJaZaDyY-32">
                    <mxGeometry y="52" width="160" height="8" as="geometry"/>
                </mxCell>
                <mxCell id="dCFRTESXz_O-yJaZaDyY-35" value="接待買家()" style="text;align=left;verticalAlign=top;spacingLeft=4;spacingRight=4;overflow=hidden;rotatable=0;points=[[0,0.5],[1,0.5]];portConstraint=eastwest;" vertex="1" parent="dCFRTESXz_O-yJaZaDyY-32">
                    <mxGeometry y="60" width="160" height="26" as="geometry"/>
                </mxCell>
                <mxCell id="dCFRTESXz_O-yJaZaDyY-36" value="" style="endArrow=open;shadow=0;strokeWidth=1;rounded=0;curved=0;endFill=1;edgeStyle=elbowEdgeStyle;elbow=vertical;exitX=0.431;exitY=0.009;exitDx=0;exitDy=0;exitPerimeter=0;" edge="1" parent="1" source="dCFRTESXz_O-yJaZaDyY-27" target="dCFRTESXz_O-yJaZaDyY-14">
                    <mxGeometry x="0.5" y="41" relative="1" as="geometry">
                        <mxPoint x="360" y="380" as="sourcePoint"/>
                        <mxPoint x="520" y="380" as="targetPoint"/>
                        <mxPoint x="-40" y="32" as="offset"/>
                    </mxGeometry>
                </mxCell>
                <mxCell id="dCFRTESXz_O-yJaZaDyY-38" value="1" style="resizable=0;align=right;verticalAlign=bottom;labelBackgroundColor=none;fontSize=12;" connectable="0" vertex="1" parent="dCFRTESXz_O-yJaZaDyY-36">
                    <mxGeometry x="1" relative="1" as="geometry">
                        <mxPoint x="-7" y="4" as="offset"/>
                    </mxGeometry>
                </mxCell>
                <mxCell id="dCFRTESXz_O-yJaZaDyY-40" value="" style="endArrow=block;endSize=10;endFill=0;shadow=0;strokeWidth=1;rounded=0;curved=0;edgeStyle=elbowEdgeStyle;elbow=vertical;entryX=0.513;entryY=1.038;entryDx=0;entryDy=0;entryPerimeter=0;" edge="1" parent="1" source="dCFRTESXz_O-yJaZaDyY-32" target="dCFRTESXz_O-yJaZaDyY-31">
                    <mxGeometry width="160" relative="1" as="geometry">
                        <mxPoint x="459" y="800" as="sourcePoint"/>
                        <mxPoint x="670" y="460" as="targetPoint"/>
                    </mxGeometry>
                </mxCell>
            </root>
        </mxGraphModel>
    </diagram>
    <diagram id="AscKv5OJ8TlSJ3xA4gjY" name="2b">
        <mxGraphModel dx="846" dy="572" grid="1" gridSize="10" guides="1" tooltips="1" connect="1" arrows="1" fold="1" page="1" pageScale="1" pageWidth="827" pageHeight="1169" math="0" shadow="0">
            <root>
                <mxCell id="0"/>
                <mxCell id="1" parent="0"/>
                <mxCell id="bcrNi9ZcJX3iXvf73c6Y-1" value="申請人" style="shape=umlActor;verticalLabelPosition=bottom;verticalAlign=top;html=1;outlineConnect=0;" vertex="1" parent="1">
                    <mxGeometry x="40" y="120.52000000000001" width="30" height="60" as="geometry"/>
                </mxCell>
                <mxCell id="bcrNi9ZcJX3iXvf73c6Y-2" value="政府機關人員" style="shape=umlActor;verticalLabelPosition=bottom;verticalAlign=top;html=1;outlineConnect=0;" vertex="1" parent="1">
                    <mxGeometry x="40" y="339.9999999999999" width="30" height="60" as="geometry"/>
                </mxCell>
                <mxCell id="bcrNi9ZcJX3iXvf73c6Y-16" value="身分填寫" style="ellipse;whiteSpace=wrap;html=1;" vertex="1" parent="1">
                    <mxGeometry x="250" y="110.00000000000001" width="120" height="80" as="geometry"/>
                </mxCell>
                <mxCell id="bcrNi9ZcJX3iXvf73c6Y-17" value="" style="endArrow=none;html=1;rounded=0;" edge="1" parent="1" source="bcrNi9ZcJX3iXvf73c6Y-1" target="bcrNi9ZcJX3iXvf73c6Y-16">
                    <mxGeometry width="50" height="50" relative="1" as="geometry">
                        <mxPoint x="400" y="350.52" as="sourcePoint"/>
                        <mxPoint x="450" y="300.52" as="targetPoint"/>
                    </mxGeometry>
                </mxCell>
                <mxCell id="bcrNi9ZcJX3iXvf73c6Y-18" value="審核資料是否一致" style="ellipse;whiteSpace=wrap;html=1;" vertex="1" parent="1">
                    <mxGeometry x="185" y="330" width="120" height="80" as="geometry"/>
                </mxCell>
                <mxCell id="bcrNi9ZcJX3iXvf73c6Y-19" value="" style="endArrow=none;html=1;rounded=0;exitX=0.5;exitY=0.5;exitDx=0;exitDy=0;exitPerimeter=0;" edge="1" parent="1" source="bcrNi9ZcJX3iXvf73c6Y-2" target="bcrNi9ZcJX3iXvf73c6Y-18">
                    <mxGeometry width="50" height="50" relative="1" as="geometry">
                        <mxPoint x="400" y="554.3299999999999" as="sourcePoint"/>
                        <mxPoint x="174.79358172956063" y="509.9966862659356" as="targetPoint"/>
                    </mxGeometry>
                </mxCell>
                <mxCell id="bcrNi9ZcJX3iXvf73c6Y-36" value="" style="endArrow=classic;html=1;rounded=0;exitX=0.023;exitY=0.725;exitDx=0;exitDy=0;exitPerimeter=0;" edge="1" parent="1" source="WFe7YvwOXTBQmeLbnNiN-11" target="bcrNi9ZcJX3iXvf73c6Y-18">
                    <mxGeometry width="50" height="50" relative="1" as="geometry">
                        <mxPoint x="206" y="440.52" as="sourcePoint"/>
                        <mxPoint x="95.87999999999988" y="292.8800000000001" as="targetPoint"/>
                    </mxGeometry>
                </mxCell>
                <mxCell id="bcrNi9ZcJX3iXvf73c6Y-50" value="在申請網頁登記資料" style="ellipse;whiteSpace=wrap;html=1;" vertex="1" parent="1">
                    <mxGeometry x="100" y="110.00000000000001" width="120" height="80" as="geometry"/>
                </mxCell>
                <mxCell id="WFe7YvwOXTBQmeLbnNiN-4" value="金融機構" style="shape=umlActor;verticalLabelPosition=bottom;verticalAlign=top;html=1;outlineConnect=0;labelBackgroundColor=#0a0a0a;fontColor=#faf4f4;" vertex="1" parent="1">
                    <mxGeometry x="40" y="710" width="30" height="60" as="geometry"/>
                </mxCell>
                <mxCell id="WFe7YvwOXTBQmeLbnNiN-5" value="" style="endArrow=none;html=1;fontColor=#faf4f4;exitX=1;exitY=0.5;exitDx=0;exitDy=0;" edge="1" parent="1" source="bcrNi9ZcJX3iXvf73c6Y-16" target="WFe7YvwOXTBQmeLbnNiN-6">
                    <mxGeometry width="50" height="50" relative="1" as="geometry">
                        <mxPoint x="450" y="150" as="sourcePoint"/>
                        <mxPoint x="520" y="150" as="targetPoint"/>
                    </mxGeometry>
                </mxCell>
                <mxCell id="WFe7YvwOXTBQmeLbnNiN-6" value="最後確認" style="ellipse;whiteSpace=wrap;html=1;labelBackgroundColor=#0a0a0a;fontColor=#faf4f4;" vertex="1" parent="1">
                    <mxGeometry x="414" y="110.52" width="120" height="80" as="geometry"/>
                </mxCell>
                <mxCell id="WFe7YvwOXTBQmeLbnNiN-9" value="返回填寫頁修改" style="ellipse;whiteSpace=wrap;html=1;labelBackgroundColor=#0a0a0a;fontColor=#faf4f4;" vertex="1" parent="1">
                    <mxGeometry x="680" y="50" width="120" height="80" as="geometry"/>
                </mxCell>
                <mxCell id="WFe7YvwOXTBQmeLbnNiN-11" value="送出" style="ellipse;whiteSpace=wrap;html=1;labelBackgroundColor=#0a0a0a;fontColor=#faf4f4;" vertex="1" parent="1">
                    <mxGeometry x="680" y="140" width="120" height="80" as="geometry"/>
                </mxCell>
                <mxCell id="Usk9Y0sFVYtwfvArfJQD-1" value="" style="endArrow=none;dashed=1;html=1;dashPattern=1 3;strokeWidth=2;rounded=0;" edge="1" parent="1" source="Usk9Y0sFVYtwfvArfJQD-3" target="WFe7YvwOXTBQmeLbnNiN-9">
                    <mxGeometry width="50" height="50" relative="1" as="geometry">
                        <mxPoint x="400" y="450.52" as="sourcePoint"/>
                        <mxPoint x="620" y="220.51999999999998" as="targetPoint"/>
                    </mxGeometry>
                </mxCell>
                <mxCell id="Usk9Y0sFVYtwfvArfJQD-2" value="" style="endArrow=none;dashed=1;html=1;dashPattern=1 3;strokeWidth=2;rounded=0;exitX=1;exitY=0.5;exitDx=0;exitDy=0;" edge="1" parent="1" target="Usk9Y0sFVYtwfvArfJQD-3" source="WFe7YvwOXTBQmeLbnNiN-6">
                    <mxGeometry width="50" height="50" relative="1" as="geometry">
                        <mxPoint x="484" y="220.51999999999998" as="sourcePoint"/>
                        <mxPoint x="560" y="220.52" as="targetPoint"/>
                    </mxGeometry>
                </mxCell>
                <mxCell id="Usk9Y0sFVYtwfvArfJQD-3" value="&amp;lt;&amp;lt;include&amp;gt;&amp;gt;" style="text;html=1;align=center;verticalAlign=middle;whiteSpace=wrap;rounded=0;" vertex="1" parent="1">
                    <mxGeometry x="570" y="75.00000000000001" width="60" height="30" as="geometry"/>
                </mxCell>
                <mxCell id="Usk9Y0sFVYtwfvArfJQD-4" value="" style="endArrow=none;dashed=1;html=1;dashPattern=1 3;strokeWidth=2;rounded=0;entryX=0.003;entryY=0.435;entryDx=0;entryDy=0;entryPerimeter=0;" edge="1" parent="1" source="Usk9Y0sFVYtwfvArfJQD-6" target="WFe7YvwOXTBQmeLbnNiN-11">
                    <mxGeometry width="50" height="50" relative="1" as="geometry">
                        <mxPoint x="451.56" y="389.64" as="sourcePoint"/>
                        <mxPoint x="726.8000000000002" y="121.56000000000002" as="targetPoint"/>
                    </mxGeometry>
                </mxCell>
                <mxCell id="Usk9Y0sFVYtwfvArfJQD-5" value="" style="endArrow=none;dashed=1;html=1;dashPattern=1 3;strokeWidth=2;rounded=0;" edge="1" parent="1" target="Usk9Y0sFVYtwfvArfJQD-6" source="WFe7YvwOXTBQmeLbnNiN-6">
                    <mxGeometry width="50" height="50" relative="1" as="geometry">
                        <mxPoint x="570" y="79.99999999999996" as="sourcePoint"/>
                        <mxPoint x="611.56" y="159.64" as="targetPoint"/>
                    </mxGeometry>
                </mxCell>
                <mxCell id="Usk9Y0sFVYtwfvArfJQD-6" value="&amp;lt;&amp;lt;include&amp;gt;&amp;gt;" style="text;html=1;align=center;verticalAlign=middle;whiteSpace=wrap;rounded=0;" vertex="1" parent="1">
                    <mxGeometry x="580" y="160.52" width="60" height="30" as="geometry"/>
                </mxCell>
                <mxCell id="Usk9Y0sFVYtwfvArfJQD-7" value="戶政系統" style="shape=umlActor;verticalLabelPosition=bottom;verticalAlign=top;html=1;outlineConnect=0;labelBackgroundColor=#0a0a0a;fontColor=#faf4f4;" vertex="1" parent="1">
                    <mxGeometry x="40" y="525" width="30" height="60" as="geometry"/>
                </mxCell>
                <mxCell id="Usk9Y0sFVYtwfvArfJQD-9" value="健保局" style="shape=umlActor;verticalLabelPosition=bottom;verticalAlign=top;html=1;outlineConnect=0;labelBackgroundColor=#0a0a0a;fontColor=#faf4f4;" vertex="1" parent="1">
                    <mxGeometry x="40" y="910" width="30" height="60" as="geometry"/>
                </mxCell>
                <mxCell id="Usk9Y0sFVYtwfvArfJQD-12" value="&lt;span style=&quot;background-color: rgb(42, 37, 47);&quot;&gt;核對&lt;/span&gt;&lt;span style=&quot;background-color: rgb(31, 31, 31); color: rgb(204, 204, 204); font-family: Consolas, &amp;quot;Courier New&amp;quot;, monospace; font-size: 14px;&quot;&gt;申請者的身份證字號或居留證號&lt;/span&gt;" style="ellipse;whiteSpace=wrap;html=1;" vertex="1" parent="1">
                    <mxGeometry x="185" y="515" width="120" height="80" as="geometry"/>
                </mxCell>
                <mxCell id="Usk9Y0sFVYtwfvArfJQD-13" value="" style="endArrow=none;html=1;rounded=0;entryX=0.02;entryY=0.644;entryDx=0;entryDy=0;entryPerimeter=0;" edge="1" parent="1" target="Usk9Y0sFVYtwfvArfJQD-12">
                    <mxGeometry width="50" height="50" relative="1" as="geometry">
                        <mxPoint x="60" y="567" as="sourcePoint"/>
                        <mxPoint x="175.00000000000136" y="554.62" as="targetPoint"/>
                    </mxGeometry>
                </mxCell>
                <mxCell id="Usk9Y0sFVYtwfvArfJQD-14" value="&lt;span style=&quot;background-color: rgb(31, 31, 31); color: rgb(204, 204, 204); font-family: Consolas, &amp;quot;Courier New&amp;quot;, monospace; font-size: 14px;&quot;&gt;核對金融帳戶是否屬於申請者本人&lt;/span&gt;" style="ellipse;whiteSpace=wrap;html=1;" vertex="1" parent="1">
                    <mxGeometry x="185" y="700" width="120" height="80" as="geometry"/>
                </mxCell>
                <mxCell id="Usk9Y0sFVYtwfvArfJQD-15" value="" style="endArrow=none;html=1;rounded=0;entryX=0.02;entryY=0.644;entryDx=0;entryDy=0;entryPerimeter=0;" edge="1" parent="1" target="Usk9Y0sFVYtwfvArfJQD-14">
                    <mxGeometry width="50" height="50" relative="1" as="geometry">
                        <mxPoint x="70" y="752" as="sourcePoint"/>
                        <mxPoint x="185.00000000000136" y="739.62" as="targetPoint"/>
                    </mxGeometry>
                </mxCell>
                <mxCell id="Usk9Y0sFVYtwfvArfJQD-16" value="&lt;span style=&quot;background-color: rgb(31, 31, 31); color: rgb(204, 204, 204); font-family: Consolas, &amp;quot;Courier New&amp;quot;, monospace; font-size: 14px;&quot;&gt;核對申請者的身份資訊&lt;/span&gt;" style="ellipse;whiteSpace=wrap;html=1;" vertex="1" parent="1">
                    <mxGeometry x="185" y="900" width="120" height="80" as="geometry"/>
                </mxCell>
                <mxCell id="Usk9Y0sFVYtwfvArfJQD-17" value="" style="endArrow=none;html=1;rounded=0;entryX=0.02;entryY=0.644;entryDx=0;entryDy=0;entryPerimeter=0;" edge="1" parent="1" target="Usk9Y0sFVYtwfvArfJQD-16">
                    <mxGeometry width="50" height="50" relative="1" as="geometry">
                        <mxPoint x="70" y="952" as="sourcePoint"/>
                        <mxPoint x="185.00000000000136" y="939.62" as="targetPoint"/>
                    </mxGeometry>
                </mxCell>
                <mxCell id="Usk9Y0sFVYtwfvArfJQD-19" value="" style="endArrow=none;html=1;fontColor=#faf4f4;exitX=1;exitY=0.5;exitDx=0;exitDy=0;entryX=0;entryY=0.5;entryDx=0;entryDy=0;" edge="1" parent="1" source="Usk9Y0sFVYtwfvArfJQD-12" target="Usk9Y0sFVYtwfvArfJQD-22">
                    <mxGeometry width="50" height="50" relative="1" as="geometry">
                        <mxPoint x="320" y="550" as="sourcePoint"/>
                        <mxPoint x="380" y="550" as="targetPoint"/>
                    </mxGeometry>
                </mxCell>
                <mxCell id="Usk9Y0sFVYtwfvArfJQD-20" value="" style="endArrow=none;html=1;fontColor=#faf4f4;exitX=0.997;exitY=0.418;exitDx=0;exitDy=0;exitPerimeter=0;entryX=0.046;entryY=0.721;entryDx=0;entryDy=0;entryPerimeter=0;" edge="1" parent="1" source="Usk9Y0sFVYtwfvArfJQD-14" target="Usk9Y0sFVYtwfvArfJQD-22">
                    <mxGeometry width="50" height="50" relative="1" as="geometry">
                        <mxPoint x="330" y="740" as="sourcePoint"/>
                        <mxPoint x="380" y="730" as="targetPoint"/>
                    </mxGeometry>
                </mxCell>
                <mxCell id="Usk9Y0sFVYtwfvArfJQD-21" value="" style="endArrow=none;html=1;fontColor=#faf4f4;exitX=0.978;exitY=0.332;exitDx=0;exitDy=0;exitPerimeter=0;entryX=0;entryY=1;entryDx=0;entryDy=0;" edge="1" parent="1" source="Usk9Y0sFVYtwfvArfJQD-16" target="Usk9Y0sFVYtwfvArfJQD-22">
                    <mxGeometry width="50" height="50" relative="1" as="geometry">
                        <mxPoint x="310" y="930" as="sourcePoint"/>
                        <mxPoint x="360" y="920" as="targetPoint"/>
                    </mxGeometry>
                </mxCell>
                <mxCell id="Usk9Y0sFVYtwfvArfJQD-22" value="是" style="ellipse;whiteSpace=wrap;html=1;" vertex="1" parent="1">
                    <mxGeometry x="420" y="610" width="120" height="80" as="geometry"/>
                </mxCell>
                <mxCell id="Usk9Y0sFVYtwfvArfJQD-23" value="否" style="ellipse;whiteSpace=wrap;html=1;" vertex="1" parent="1">
                    <mxGeometry x="420" y="810" width="120" height="80" as="geometry"/>
                </mxCell>
                <mxCell id="Usk9Y0sFVYtwfvArfJQD-25" value="" style="endArrow=none;html=1;fontColor=#faf4f4;exitX=1;exitY=0.5;exitDx=0;exitDy=0;entryX=0;entryY=0;entryDx=0;entryDy=0;" edge="1" parent="1" target="Usk9Y0sFVYtwfvArfJQD-23">
                    <mxGeometry width="50" height="50" relative="1" as="geometry">
                        <mxPoint x="304.99999999999864" y="555" as="sourcePoint"/>
                        <mxPoint x="488.1600000000001" y="700" as="targetPoint"/>
                    </mxGeometry>
                </mxCell>
                <mxCell id="Usk9Y0sFVYtwfvArfJQD-26" value="" style="endArrow=none;html=1;fontColor=#faf4f4;exitX=1;exitY=0.5;exitDx=0;exitDy=0;entryX=-0.019;entryY=0.601;entryDx=0;entryDy=0;entryPerimeter=0;" edge="1" parent="1" target="Usk9Y0sFVYtwfvArfJQD-23">
                    <mxGeometry width="50" height="50" relative="1" as="geometry">
                        <mxPoint x="304.99999999999864" y="740" as="sourcePoint"/>
                        <mxPoint x="488.1600000000001" y="885" as="targetPoint"/>
                    </mxGeometry>
                </mxCell>
                <mxCell id="Usk9Y0sFVYtwfvArfJQD-27" value="" style="endArrow=none;html=1;fontColor=#faf4f4;exitX=1;exitY=0.5;exitDx=0;exitDy=0;entryX=0.167;entryY=0.918;entryDx=0;entryDy=0;entryPerimeter=0;" edge="1" parent="1" target="Usk9Y0sFVYtwfvArfJQD-23">
                    <mxGeometry width="50" height="50" relative="1" as="geometry">
                        <mxPoint x="304.99999999999864" y="930" as="sourcePoint"/>
                        <mxPoint x="488.1600000000001" y="1075" as="targetPoint"/>
                    </mxGeometry>
                </mxCell>
                <mxCell id="Usk9Y0sFVYtwfvArfJQD-28" value="" style="endArrow=classic;html=1;fontColor=#faf4f4;exitX=0.459;exitY=1.034;exitDx=0;exitDy=0;exitPerimeter=0;entryX=0.453;entryY=0.019;entryDx=0;entryDy=0;entryPerimeter=0;" edge="1" parent="1" source="bcrNi9ZcJX3iXvf73c6Y-18" target="Usk9Y0sFVYtwfvArfJQD-12">
                    <mxGeometry width="50" height="50" relative="1" as="geometry">
                        <mxPoint x="360" y="560" as="sourcePoint"/>
                        <mxPoint x="410" y="510" as="targetPoint"/>
                    </mxGeometry>
                </mxCell>
                <mxCell id="Usk9Y0sFVYtwfvArfJQD-29" value="" style="endArrow=classic;html=1;fontColor=#faf4f4;exitX=0.459;exitY=1.034;exitDx=0;exitDy=0;exitPerimeter=0;entryX=0.453;entryY=0.019;entryDx=0;entryDy=0;entryPerimeter=0;" edge="1" parent="1">
                    <mxGeometry width="50" height="50" relative="1" as="geometry">
                        <mxPoint x="245.34000000000015" y="595" as="sourcePoint"/>
                        <mxPoint x="244.62000000000012" y="698.8" as="targetPoint"/>
                    </mxGeometry>
                </mxCell>
                <mxCell id="Usk9Y0sFVYtwfvArfJQD-30" value="" style="endArrow=classic;html=1;fontColor=#faf4f4;exitX=0.459;exitY=1.034;exitDx=0;exitDy=0;exitPerimeter=0;entryX=0.5;entryY=0;entryDx=0;entryDy=0;" edge="1" parent="1" target="Usk9Y0sFVYtwfvArfJQD-16">
                    <mxGeometry width="50" height="50" relative="1" as="geometry">
                        <mxPoint x="245.34000000000015" y="780" as="sourcePoint"/>
                        <mxPoint x="244.62000000000012" y="883.8" as="targetPoint"/>
                    </mxGeometry>
                </mxCell>
                <mxCell id="Usk9Y0sFVYtwfvArfJQD-31" value="" style="endArrow=none;html=1;fontColor=#faf4f4;exitX=1;exitY=0.5;exitDx=0;exitDy=0;" edge="1" parent="1" source="Usk9Y0sFVYtwfvArfJQD-22">
                    <mxGeometry width="50" height="50" relative="1" as="geometry">
                        <mxPoint x="360" y="770" as="sourcePoint"/>
                        <mxPoint x="590" y="650" as="targetPoint"/>
                    </mxGeometry>
                </mxCell>
                <mxCell id="Usk9Y0sFVYtwfvArfJQD-32" value="進入名單寫成表格" style="ellipse;whiteSpace=wrap;html=1;" vertex="1" parent="1">
                    <mxGeometry x="590" y="610" width="120" height="80" as="geometry"/>
                </mxCell>
                <mxCell id="Usk9Y0sFVYtwfvArfJQD-33" value="" style="endArrow=none;html=1;fontColor=#faf4f4;exitX=0.5;exitY=1;exitDx=0;exitDy=0;entryX=0.5;entryY=0;entryDx=0;entryDy=0;" edge="1" parent="1" source="Usk9Y0sFVYtwfvArfJQD-32" target="Usk9Y0sFVYtwfvArfJQD-34">
                    <mxGeometry width="50" height="50" relative="1" as="geometry">
                        <mxPoint x="660" y="690" as="sourcePoint"/>
                        <mxPoint x="650" y="730" as="targetPoint"/>
                    </mxGeometry>
                </mxCell>
                <mxCell id="Usk9Y0sFVYtwfvArfJQD-34" value="產生傳送報表" style="ellipse;whiteSpace=wrap;html=1;" vertex="1" parent="1">
                    <mxGeometry x="595" y="730" width="110" height="80" as="geometry"/>
                </mxCell>
            </root>
        </mxGraphModel>
    </diagram>
    <diagram id="jKp8lnFoO_ODNvvGuu6S" name="2d">
        <mxGraphModel dx="634" dy="429" grid="1" gridSize="10" guides="1" tooltips="1" connect="1" arrows="1" fold="1" page="1" pageScale="1" pageWidth="827" pageHeight="1169" math="0" shadow="0">
            <root>
                <mxCell id="0"/>
                <mxCell id="1" parent="0"/>
                <mxCell id="XENWNn9kpR0CEucoo9tG-1" value="政府人員" style="swimlane;fontStyle=2;align=center;verticalAlign=top;childLayout=stackLayout;horizontal=1;startSize=26;horizontalStack=0;resizeParent=1;resizeLast=0;collapsible=1;marginBottom=0;rounded=0;shadow=0;strokeWidth=1;" vertex="1" parent="1">
                    <mxGeometry x="160" y="430" width="160" height="120" as="geometry">
                        <mxRectangle x="230" y="140" width="160" height="26" as="alternateBounds"/>
                    </mxGeometry>
                </mxCell>
                <mxCell id="XENWNn9kpR0CEucoo9tG-4" value="" style="line;html=1;strokeWidth=1;align=left;verticalAlign=middle;spacingTop=-1;spacingLeft=3;spacingRight=3;rotatable=0;labelPosition=right;points=[];portConstraint=eastwest;" vertex="1" parent="XENWNn9kpR0CEucoo9tG-1">
                    <mxGeometry y="26" width="160" height="8" as="geometry"/>
                </mxCell>
                <mxCell id="XENWNn9kpR0CEucoo9tG-5" value="戶政系統連線()&#10;金融機構對比()&#10;健保局對比()" style="text;align=left;verticalAlign=top;spacingLeft=4;spacingRight=4;overflow=hidden;rotatable=0;points=[[0,0.5],[1,0.5]];portConstraint=eastwest;" vertex="1" parent="XENWNn9kpR0CEucoo9tG-1">
                    <mxGeometry y="34" width="160" height="66" as="geometry"/>
                </mxCell>
                <mxCell id="XENWNn9kpR0CEucoo9tG-6" value="" style="endArrow=block;endSize=10;endFill=0;shadow=0;strokeWidth=1;rounded=0;curved=0;edgeStyle=elbowEdgeStyle;elbow=vertical;" edge="1" parent="1" target="XENWNn9kpR0CEucoo9tG-1">
                    <mxGeometry width="160" relative="1" as="geometry">
                        <mxPoint x="160" y="630" as="sourcePoint"/>
                        <mxPoint x="160" y="473" as="targetPoint"/>
                    </mxGeometry>
                </mxCell>
                <mxCell id="XENWNn9kpR0CEucoo9tG-7" value="" style="endArrow=block;endSize=10;endFill=0;shadow=0;strokeWidth=1;rounded=0;curved=0;edgeStyle=elbowEdgeStyle;elbow=vertical;exitX=0.543;exitY=-0.021;exitDx=0;exitDy=0;exitPerimeter=0;" edge="1" parent="1" target="XENWNn9kpR0CEucoo9tG-1" source="XENWNn9kpR0CEucoo9tG-24">
                    <mxGeometry width="160" relative="1" as="geometry">
                        <mxPoint x="370" y="630" as="sourcePoint"/>
                        <mxPoint x="270" y="541" as="targetPoint"/>
                        <Array as="points">
                            <mxPoint x="390" y="590"/>
                        </Array>
                    </mxGeometry>
                </mxCell>
                <mxCell id="XENWNn9kpR0CEucoo9tG-8" value="網站" style="swimlane;fontStyle=0;align=center;verticalAlign=top;childLayout=stackLayout;horizontal=1;startSize=26;horizontalStack=0;resizeParent=1;resizeLast=0;collapsible=1;marginBottom=0;rounded=0;shadow=0;strokeWidth=1;" vertex="1" parent="1">
                    <mxGeometry x="330" y="250" width="160" height="150" as="geometry">
                        <mxRectangle x="550" y="140" width="160" height="26" as="alternateBounds"/>
                    </mxGeometry>
                </mxCell>
                <mxCell id="2b78kgrG3HevRoxrPkRZ-2" value="基本資料:字串" style="text;html=1;align=left;verticalAlign=middle;resizable=0;points=[];autosize=1;strokeColor=none;fillColor=none;fontColor=#faf4f4;" vertex="1" parent="XENWNn9kpR0CEucoo9tG-8">
                    <mxGeometry y="26" width="160" height="30" as="geometry"/>
                </mxCell>
                <mxCell id="XENWNn9kpR0CEucoo9tG-9" value="" style="line;html=1;strokeWidth=1;align=left;verticalAlign=middle;spacingTop=-1;spacingLeft=3;spacingRight=3;rotatable=0;labelPosition=right;points=[];portConstraint=eastwest;" vertex="1" parent="XENWNn9kpR0CEucoo9tG-8">
                    <mxGeometry y="56" width="160" height="24" as="geometry"/>
                </mxCell>
                <mxCell id="XENWNn9kpR0CEucoo9tG-10" value="提交申請()&#10;產生名單()" style="text;align=left;verticalAlign=top;spacingLeft=4;spacingRight=4;overflow=hidden;rotatable=0;points=[[0,0.5],[1,0.5]];portConstraint=eastwest;" vertex="1" parent="XENWNn9kpR0CEucoo9tG-8">
                    <mxGeometry y="80" width="160" height="70" as="geometry"/>
                </mxCell>
                <mxCell id="XENWNn9kpR0CEucoo9tG-15" value="" style="endArrow=open;shadow=0;strokeWidth=1;rounded=0;curved=0;endFill=1;edgeStyle=elbowEdgeStyle;elbow=vertical;" edge="1" parent="1" source="XENWNn9kpR0CEucoo9tG-1" target="XENWNn9kpR0CEucoo9tG-8">
                    <mxGeometry x="0.5" y="41" relative="1" as="geometry">
                        <mxPoint x="340" y="462" as="sourcePoint"/>
                        <mxPoint x="500" y="462" as="targetPoint"/>
                        <mxPoint x="-40" y="32" as="offset"/>
                    </mxGeometry>
                </mxCell>
                <mxCell id="XENWNn9kpR0CEucoo9tG-19" value="金融機構" style="swimlane;fontStyle=2;align=center;verticalAlign=top;childLayout=stackLayout;horizontal=1;startSize=26;horizontalStack=0;resizeParent=1;resizeLast=0;collapsible=1;marginBottom=0;rounded=0;shadow=0;strokeWidth=1;" vertex="1" parent="1">
                    <mxGeometry x="80" y="630" width="160" height="120" as="geometry">
                        <mxRectangle x="230" y="140" width="160" height="26" as="alternateBounds"/>
                    </mxGeometry>
                </mxCell>
                <mxCell id="XENWNn9kpR0CEucoo9tG-22" value="" style="line;html=1;strokeWidth=1;align=left;verticalAlign=middle;spacingTop=-1;spacingLeft=3;spacingRight=3;rotatable=0;labelPosition=right;points=[];portConstraint=eastwest;" vertex="1" parent="XENWNn9kpR0CEucoo9tG-19">
                    <mxGeometry y="26" width="160" height="8" as="geometry"/>
                </mxCell>
                <mxCell id="XENWNn9kpR0CEucoo9tG-23" value="提供金融帳戶資訊()" style="text;align=left;verticalAlign=top;spacingLeft=4;spacingRight=4;overflow=hidden;rotatable=0;points=[[0,0.5],[1,0.5]];portConstraint=eastwest;" vertex="1" parent="XENWNn9kpR0CEucoo9tG-19">
                    <mxGeometry y="34" width="160" height="26" as="geometry"/>
                </mxCell>
                <mxCell id="XENWNn9kpR0CEucoo9tG-24" value="現場客戶資料" style="swimlane;fontStyle=2;align=center;verticalAlign=top;childLayout=stackLayout;horizontal=1;startSize=26;horizontalStack=0;resizeParent=1;resizeLast=0;collapsible=1;marginBottom=0;rounded=0;shadow=0;strokeWidth=1;" vertex="1" parent="1">
                    <mxGeometry x="440" y="630" width="170" height="112" as="geometry">
                        <mxRectangle x="290" y="630" width="160" height="26" as="alternateBounds"/>
                    </mxGeometry>
                </mxCell>
                <mxCell id="XENWNn9kpR0CEucoo9tG-26" value="" style="line;html=1;strokeWidth=1;align=left;verticalAlign=middle;spacingTop=-1;spacingLeft=3;spacingRight=3;rotatable=0;labelPosition=right;points=[];portConstraint=eastwest;" vertex="1" parent="XENWNn9kpR0CEucoo9tG-24">
                    <mxGeometry y="26" width="170" height="24" as="geometry"/>
                </mxCell>
                <mxCell id="XENWNn9kpR0CEucoo9tG-25" value="提供身分證字號或居留證號()" style="text;align=left;verticalAlign=top;spacingLeft=4;spacingRight=4;overflow=hidden;rotatable=0;points=[[0,0.5],[1,0.5]];portConstraint=eastwest;" vertex="1" parent="XENWNn9kpR0CEucoo9tG-24">
                    <mxGeometry y="50" width="170" height="26" as="geometry"/>
                </mxCell>
                <mxCell id="XENWNn9kpR0CEucoo9tG-27" value="申請者" style="swimlane;fontStyle=2;align=center;verticalAlign=top;childLayout=stackLayout;horizontal=1;startSize=26;horizontalStack=0;resizeParent=1;resizeLast=0;collapsible=1;marginBottom=0;rounded=0;shadow=0;strokeWidth=1;" vertex="1" parent="1">
                    <mxGeometry x="510" y="460" width="160" height="120" as="geometry">
                        <mxRectangle x="230" y="140" width="160" height="26" as="alternateBounds"/>
                    </mxGeometry>
                </mxCell>
                <mxCell id="XENWNn9kpR0CEucoo9tG-28" value="身分證字號或居留證:字串&#10;金融機構帳號:字串&#10;健保卡卡號:字串&#10;" style="text;align=left;verticalAlign=top;spacingLeft=4;spacingRight=4;overflow=hidden;rotatable=0;points=[[0,0.5],[1,0.5]];portConstraint=eastwest;" vertex="1" parent="XENWNn9kpR0CEucoo9tG-27">
                    <mxGeometry y="26" width="160" height="54" as="geometry"/>
                </mxCell>
                <mxCell id="XENWNn9kpR0CEucoo9tG-29" value="" style="line;html=1;strokeWidth=1;align=left;verticalAlign=middle;spacingTop=-1;spacingLeft=3;spacingRight=3;rotatable=0;labelPosition=right;points=[];portConstraint=eastwest;" vertex="1" parent="XENWNn9kpR0CEucoo9tG-27">
                    <mxGeometry y="80" width="160" height="40" as="geometry"/>
                </mxCell>
                <mxCell id="XENWNn9kpR0CEucoo9tG-36" value="" style="endArrow=open;shadow=0;strokeWidth=1;rounded=0;curved=0;endFill=1;edgeStyle=elbowEdgeStyle;elbow=vertical;exitX=0.431;exitY=0.009;exitDx=0;exitDy=0;exitPerimeter=0;" edge="1" parent="1" source="XENWNn9kpR0CEucoo9tG-27">
                    <mxGeometry x="0.5" y="41" relative="1" as="geometry">
                        <mxPoint x="350" y="460" as="sourcePoint"/>
                        <mxPoint x="410" y="406" as="targetPoint"/>
                        <mxPoint x="-40" y="32" as="offset"/>
                    </mxGeometry>
                </mxCell>
                <mxCell id="uBiyL23x73HwkoboVIqD-1" value="健保局" style="swimlane;fontStyle=2;align=center;verticalAlign=top;childLayout=stackLayout;horizontal=1;startSize=26;horizontalStack=0;resizeParent=1;resizeLast=0;collapsible=1;marginBottom=0;rounded=0;shadow=0;strokeWidth=1;" vertex="1" parent="1">
                    <mxGeometry x="260" y="630" width="160" height="112" as="geometry">
                        <mxRectangle x="290" y="630" width="160" height="26" as="alternateBounds"/>
                    </mxGeometry>
                </mxCell>
                <mxCell id="uBiyL23x73HwkoboVIqD-3" value="" style="line;html=1;strokeWidth=1;align=left;verticalAlign=middle;spacingTop=-1;spacingLeft=3;spacingRight=3;rotatable=0;labelPosition=right;points=[];portConstraint=eastwest;" vertex="1" parent="uBiyL23x73HwkoboVIqD-1">
                    <mxGeometry y="26" width="160" height="24" as="geometry"/>
                </mxCell>
                <mxCell id="uBiyL23x73HwkoboVIqD-2" value="提供健保卡資料()" style="text;align=left;verticalAlign=top;spacingLeft=4;spacingRight=4;overflow=hidden;rotatable=0;points=[[0,0.5],[1,0.5]];portConstraint=eastwest;" vertex="1" parent="uBiyL23x73HwkoboVIqD-1">
                    <mxGeometry y="50" width="160" height="26" as="geometry"/>
                </mxCell>
                <mxCell id="uBiyL23x73HwkoboVIqD-4" value="" style="endArrow=none;html=1;fontColor=#faf4f4;exitX=0.5;exitY=0;exitDx=0;exitDy=0;" edge="1" parent="1" source="uBiyL23x73HwkoboVIqD-1">
                    <mxGeometry width="50" height="50" relative="1" as="geometry">
                        <mxPoint x="350" y="580" as="sourcePoint"/>
                        <mxPoint x="340" y="590" as="targetPoint"/>
                    </mxGeometry>
                </mxCell>
            </root>
        </mxGraphModel>
    </diagram>
</mxfile>